<svg width="366" height="52" viewBox="0 0 366 52" fill="none" xmlns="http://www.w3.org/2000/svg">
<path d="M85.0871 9.64768C85.0062 9.5263 84.8443 9.48584 84.6825 9.48584H57.2103C56.8866 9.48584 56.6438 9.7286 56.6438 10.0523V41.9751C56.6438 42.2988 56.8866 42.5415 57.2103 42.5415H84.723C84.8848 42.5415 85.0062 42.4606 85.0871 42.3797L91.8439 35.8252V29.3516L84.4802 26.6813C84.2779 26.6004 84.1565 26.3981 84.1565 26.1553C84.1565 25.9125 84.2779 25.7507 84.4397 25.6698C84.4397 25.6698 84.5207 25.6293 84.5611 25.6293L91.8439 22.6758V16.2022L85.0871 9.64768ZM67.8107 35.8657L65.3831 39.0215V39.062C65.3831 39.062 65.3831 39.1025 65.3022 39.1429C65.3022 39.1429 65.2618 39.1429 65.2213 39.1834C65.2213 39.1834 65.2213 39.1834 65.1808 39.1834C65.0999 39.1834 65.019 39.2238 64.9381 39.2238C64.6144 39.2238 64.3717 38.9811 64.3717 38.6574V29.3516H84.1565V35.7847H67.8512L67.8107 35.8657ZM84.1161 22.6758H64.3312V13.4104C64.3312 13.0868 64.574 12.844 64.8976 12.844C65.2213 12.844 65.2213 12.9249 65.3427 13.0463V13.0868L67.7298 16.2022H84.0756V22.6758H84.1161Z" fill="#6B7280"/>
<path d="M226.939 41.6109C227.061 41.7323 227.101 41.8537 227.101 42.0155C227.101 42.3392 226.859 42.5415 226.535 42.5415H216.582L211.686 37.0389L210.675 35.9061L204.97 29.4729C204.848 29.3516 204.727 29.2706 204.525 29.2706C204.201 29.2706 203.958 29.5134 203.958 29.8371V42.501H196.271V13.0058C196.271 12.8844 196.271 12.8035 196.352 12.6821L198.698 9.68807C198.779 9.52623 198.941 9.44531 199.144 9.44531H203.958V22.1092C203.958 22.3925 204.201 22.6757 204.525 22.6757C204.646 22.6757 204.767 22.6352 204.889 22.5138L211.241 16.0807L211.646 15.6761L217.755 9.48577H226.494C226.818 9.48577 227.02 9.72853 227.02 10.0522C227.02 10.3759 226.939 10.3354 226.859 10.4568L221.235 16.1212L219.293 18.0633L214.64 22.7566L211.767 25.6697C211.686 25.7911 211.605 25.9529 211.605 26.0743C211.605 26.1957 211.646 26.3575 211.767 26.4789L214.64 29.392L219.293 34.0854L221.235 36.0275L226.859 41.6918L226.939 41.6109Z" fill="#6B7280"/>
<path d="M123.16 36.3916V42.5415H95.6876V9.48584H102.849C103.173 9.48584 103.415 9.7286 103.415 10.0523V38.6979C103.415 39.0215 103.618 39.2643 103.941 39.2643C104.265 39.2643 104.306 39.1429 104.386 39.0215L106.855 35.8252H122.593C122.877 35.8252 123.16 36.068 123.16 36.3512V36.3916Z" fill="#6B7280"/>
<path d="M169.365 36.068H188.422C188.543 36.068 188.664 36.068 188.745 36.1489L188.826 36.2298L192.306 39.1834C192.427 39.3048 192.468 39.4261 192.468 39.588V42.582H169.365L161.678 36.068V16.1213L169.365 9.48584H192.468V12.5203C192.468 12.6822 192.387 12.8035 192.306 12.9249L192.225 13.0058L188.826 15.9594L188.745 16.0403C188.664 16.0808 188.543 16.1213 188.422 16.1213H172.723L170.417 12.9654C170.336 12.8036 170.134 12.6822 169.931 12.6822C169.608 12.6822 169.365 12.9249 169.365 13.2486V36.0275V36.068Z" fill="#6B7280"/>
<path d="M238.916 36.068H257.972C258.094 36.068 258.215 36.068 258.296 36.1489L258.377 36.2298L261.856 39.1834C261.978 39.3048 262.018 39.4261 262.018 39.588V42.582H238.916L230.985 36.068V16.1213L238.916 9.48584H262.018V12.5203C262.018 12.6822 261.937 12.8035 261.856 12.9249L261.775 13.0058L258.377 15.9594L258.296 16.0403C258.215 16.0808 258.094 16.1213 257.972 16.1213H242.274L239.968 12.9654C239.887 12.8036 239.684 12.6822 239.482 12.6822C239.158 12.6822 238.916 12.9249 238.916 13.2486V36.0275V36.068Z" fill="#6B7280"/>
<path d="M366 13.3296V15.5549C366 15.8381 365.757 16.0809 365.434 16.0809H342.897V22.7163H365.434C365.717 22.7163 366 22.959 366 23.2422V28.8257C366 29.1089 365.798 29.3112 365.515 29.3517H342.857V35.9871H365.393C365.676 35.9871 365.96 36.2299 365.96 36.5131V42.0561C365.96 42.3393 365.717 42.5821 365.393 42.5821H335.129V10.0523C335.129 9.72866 335.412 9.52637 335.696 9.52637H362.682L365.919 13.3701L366 13.3296Z" fill="#6B7280"/>
<path d="M328.089 9.48584H301.102C300.779 9.48584 300.536 9.72859 300.536 10.0118V42.0156C300.536 42.3393 300.779 42.582 301.102 42.582H328.089L331.366 38.7383V13.3295L328.089 9.48584ZM323.639 32.1029L320.361 35.9466H308.223V16.0808H320.159L322.587 12.9654C322.667 12.8036 322.87 12.6822 323.072 12.6822C323.396 12.6822 323.639 12.9249 323.639 13.2486V32.1029Z" fill="#6B7280"/>
<path d="M157.753 16.1617L150.066 9.48584H134.65L126.963 16.1617V35.9466L134.65 42.582H150.066L157.753 35.9466V16.1617ZM150.066 35.3801C150.066 35.7038 149.823 35.9466 149.499 35.9466H138.13L135.743 39.1025C135.621 39.2643 135.46 39.3857 135.257 39.3857C134.934 39.3857 134.65 39.1025 134.65 38.7788V16.7282C134.65 16.4449 134.893 16.2022 135.217 16.2022H146.586L149.014 12.9654C149.135 12.844 149.297 12.7226 149.499 12.7226C149.823 12.7226 150.106 13.0058 150.106 13.3295V35.3801H150.066Z" fill="#6B7280"/>
<path d="M143.875 24.3347H140.8C140.689 24.3347 140.598 24.4253 140.598 24.537V27.612C140.598 27.7237 140.689 27.8143 140.8 27.8143H143.875C143.987 27.8143 144.078 27.7237 144.078 27.612V24.537C144.078 24.4253 143.987 24.3347 143.875 24.3347Z" fill="#6B7280"/>
<path d="M296.692 16.1617L289.005 9.48584H273.59L265.902 16.1617V35.9466L273.59 42.582H289.005L296.692 35.9466V16.1617ZM289.005 35.3801C289.005 35.7038 288.762 35.9466 288.438 35.9466H277.069L274.682 39.1025C274.561 39.2643 274.399 39.3857 274.197 39.3857C273.873 39.3857 273.59 39.1025 273.59 38.7788V16.7282C273.59 16.4449 273.832 16.2022 274.156 16.2022H285.525L287.953 12.9654C288.074 12.844 288.236 12.7226 288.438 12.7226C288.762 12.7226 289.045 13.0058 289.045 13.3295V35.3801H289.005Z" fill="#6B7280"/>
<path d="M25.9173 23.2285H21.2286C21.0461 23.2285 20.8982 23.3765 20.8982 23.559V28.2477C20.8982 28.4301 21.0461 28.5781 21.2286 28.5781H25.9173C26.0998 28.5781 26.2478 28.4301 26.2478 28.2477V23.559C26.2478 23.3765 26.0998 23.2285 25.9173 23.2285Z" fill="#6B7280"/>
<path d="M47.1638 10.7432L35.384 0.544189H11.7887L0 10.7432V41.0277L11.7887 51.1999H35.384L47.1816 41.0277V10.7432H47.1638ZM35.384 40.1703C35.384 40.6437 35 41.0277 34.5266 41.0277H17.1383L13.4766 45.8682C13.4766 45.8772 13.4677 45.8861 13.4588 45.8861C13.298 46.1361 13.0122 46.3058 12.6907 46.3058C12.1906 46.3058 11.7798 45.895 11.7798 45.3949V11.6452C11.7798 11.6274 11.7798 11.6095 11.7798 11.6006C11.7798 11.5916 11.7798 11.5738 11.7798 11.5559C11.7976 11.1004 12.1727 10.7343 12.6371 10.7343H30.0612L33.7497 5.80446C33.9193 5.59012 34.1783 5.45615 34.4731 5.45615C34.9732 5.45615 35.384 5.86697 35.384 6.3671V40.1614V40.1703Z" fill="#6B7280"/>
</svg>
