<svg width="256" height="230" viewBox="0 0 256 230" fill="none" xmlns="http://www.w3.org/2000/svg">
<path opacity="0.8" d="M126.977 229.221C185.528 229.221 232.992 181.756 232.992 123.205C232.992 64.655 185.528 17.1904 126.977 17.1904C68.427 17.1904 20.9624 64.655 20.9624 123.205C20.9624 181.756 68.427 229.221 126.977 229.221Z" fill="url(#paint0_linear_5123_209)"/>
<path opacity="0.8" d="M189.543 146.672C226.246 146.672 256 116.918 256 80.2146C256 43.5113 226.246 13.7574 189.543 13.7574C152.84 13.7574 123.086 43.5113 123.086 80.2146C123.086 116.918 152.84 146.672 189.543 146.672Z" fill="url(#paint1_linear_5123_209)"/>
<path opacity="0.8" d="M82.7618 13.5444C37.0538 21.0248 6.06421 64.1425 13.5446 109.851C21.025 155.559 64.1427 186.548 109.851 179.068C155.559 171.587 186.548 128.47 179.068 82.7617C171.588 37.0537 128.47 6.06407 82.7618 13.5444Z" fill="url(#paint2_linear_5123_209)"/>
<path opacity="0.8" d="M174.815 223.986C208.627 223.986 236.037 196.575 236.037 162.763C236.037 128.951 208.627 101.54 174.815 101.54C141.002 101.54 113.592 128.951 113.592 162.763C113.592 196.575 141.002 223.986 174.815 223.986Z" fill="url(#paint3_linear_5123_209)"/>
<path d="M196.465 133.585L190.339 116.707C190.067 116.026 189.522 115.346 188.842 115.073C188.161 114.801 187.345 114.665 186.664 114.937C183.397 116.162 179.858 116.026 176.727 114.529C173.597 113.032 171.283 110.445 170.058 107.178C167.607 100.509 171.147 93.0221 177.816 90.572C178.497 90.2998 179.177 89.7553 179.45 89.0747C179.722 88.3941 179.858 87.5774 179.586 86.8968L173.461 70.0181C173.188 69.3376 172.644 68.657 171.963 68.3847C171.283 68.1125 170.466 67.9764 169.785 68.2486L69.1939 105.137C67.6966 105.681 66.8799 107.315 67.4244 108.812L73.5497 125.691C74.0942 127.188 75.7276 128.005 77.2249 127.46C83.8947 125.01 91.3812 128.549 93.8313 135.219C96.2814 141.889 92.7424 149.375 86.0726 151.825C84.5753 152.37 83.7586 154.003 84.303 155.5L90.4284 172.379C90.7006 173.06 91.2451 173.74 91.9257 174.013C92.334 174.149 92.7424 174.285 93.1507 174.285C93.423 174.285 93.8313 174.285 94.1036 174.149L194.559 137.533C196.192 136.716 197.009 135.083 196.465 133.585ZM148.551 136.444L137.117 133.994C136.845 133.994 136.572 133.994 136.3 134.266L129.086 143.522C127.725 145.292 125.002 144.475 124.73 142.297L123.369 130.727C123.369 130.455 123.097 130.182 122.825 130.046L111.799 125.963C109.757 125.146 109.621 122.288 111.663 121.471L122.416 116.707C122.688 116.571 122.825 116.298 122.825 116.026L123.233 104.32C123.369 102.142 126.091 101.189 127.453 102.823L135.347 111.534C135.484 111.806 135.892 111.806 136.164 111.806L147.462 108.54C149.64 107.995 151.409 110.173 150.32 112.079L144.467 122.288C144.331 122.56 144.331 122.832 144.467 123.104L151.001 132.905C152.362 134.538 150.729 136.988 148.551 136.444Z" fill="white"/>
<defs>
<linearGradient id="paint0_linear_5123_209" x1="20.9624" y1="17.1904" x2="232.992" y2="229.22" gradientUnits="userSpaceOnUse">
<stop stop-color="#00DDFF"/>
<stop offset="1" stop-color="#FF00D4"/>
</linearGradient>
<linearGradient id="paint1_linear_5123_209" x1="123.086" y1="13.7574" x2="256" y2="146.672" gradientUnits="userSpaceOnUse">
<stop stop-color="#00DDFF"/>
<stop offset="1" stop-color="#FF00D4"/>
</linearGradient>
<linearGradient id="paint2_linear_5123_209" x1="192.612" y1="165.523" x2="0.000169833" y2="27.0889" gradientUnits="userSpaceOnUse">
<stop stop-color="#00DDFF"/>
<stop offset="1" stop-color="#FF00D4"/>
</linearGradient>
<linearGradient id="paint3_linear_5123_209" x1="113.592" y1="101.54" x2="236.037" y2="223.986" gradientUnits="userSpaceOnUse">
<stop stop-color="#00DDFF"/>
<stop offset="1" stop-color="#FF00D4"/>
</linearGradient>
</defs>
</svg>
