<svg version="1.1" id="Layer_1" xmlns="http://www.w3.org/2000/svg" xmlns:xlink="http://www.w3.org/1999/xlink" x="0px" y="0px"
	 width="100%" viewBox="0 0 672 192" enable-background="new 0 0 672 192" xml:space="preserve">
<path fill="#FFFFFF" opacity="1.000000" stroke="none" 
	d="
M486.000000,193.000000 
	C324.000031,193.000000 162.500046,193.000000 1.000043,193.000000 
	C1.000029,129.000031 1.000029,65.000053 1.000014,1.000061 
	C224.999939,1.000040 448.999878,1.000040 672.999878,1.000020 
	C672.999878,64.999939 672.999878,128.999878 672.999939,192.999908 
	C610.833313,193.000000 548.666687,193.000000 486.000000,193.000000 
M538.489990,184.637848 
	C542.322144,184.634155 546.156860,184.718903 549.985779,184.605911 
	C555.633240,184.439209 558.164062,182.024353 558.489563,176.329681 
	C558.717529,172.341125 558.628296,168.333923 558.661499,164.334885 
	C558.764526,151.917145 559.653625,151.161575 572.170776,151.629044 
	C576.954407,151.807693 579.194336,154.095291 579.258423,158.735016 
	C579.336670,164.399979 579.237244,170.071182 579.469238,175.729233 
	C579.723389,181.927521 582.380920,184.540436 588.503845,184.596542 
	C599.834473,184.700439 611.167236,184.691116 622.498108,184.603500 
	C627.965149,184.561234 629.773193,182.791763 629.715332,177.388840 
	C629.422913,150.065659 629.375549,122.733521 628.575195,95.424080 
	C627.905396,72.567368 614.522888,56.875679 592.385986,51.769833 
	C579.916443,48.893772 567.292786,48.570469 554.667358,50.588589 
	C539.970581,52.937794 527.317444,58.876156 518.838989,71.815086 
	C518.056885,73.008636 517.279907,74.537392 514.849121,73.498489 
	C514.176392,68.439133 516.815552,64.070091 518.708679,59.606651 
	C521.750183,52.435661 521.222534,51.372749 513.675598,51.371216 
	C469.015869,51.362156 424.356049,51.412552 379.696442,51.338879 
	C373.036224,51.327892 368.301239,53.937496 364.948853,59.714520 
	C361.272644,66.049599 357.241852,72.180237 353.311737,78.365776 
	C352.361481,79.861389 351.449982,81.984680 349.156799,81.023918 
	C346.949341,80.099091 347.691498,77.894417 347.920593,76.158630 
	C348.486145,71.873703 349.198608,67.607994 349.865448,63.336651 
	C351.106140,55.389465 347.778259,51.459061 339.608459,51.396843 
	C331.276886,51.333389 322.944458,51.376194 314.612427,51.371819 
	C301.356354,51.364861 298.957550,53.472679 297.411621,66.492172 
	C297.372375,66.822777 297.383301,67.160065 297.333527,67.488579 
	C296.262543,74.555725 295.210632,81.625931 294.092743,88.685677 
	C293.835022,90.313255 293.626343,92.321136 291.630127,92.621834 
	C289.547119,92.935600 289.084106,90.860550 288.273743,89.467628 
	C287.940002,88.893967 287.702362,88.265129 287.406616,87.668533 
	C280.083466,72.895996 268.733490,62.319168 253.809235,55.490349 
	C239.012283,48.719769 223.312241,46.961266 207.393631,48.494827 
	C184.236572,50.725731 164.946609,60.366581 151.674149,80.272491 
	C150.718643,81.705559 150.193436,83.725571 148.055374,83.933540 
	C146.558578,83.512398 146.371979,82.243935 146.098511,81.168015 
	C142.023865,65.136681 131.044952,56.052673 115.800529,51.671215 
	C101.679459,47.612625 87.229698,47.264103 72.736328,49.394123 
	C49.997559,52.735928 30.849657,70.890945 26.358065,93.324890 
	C23.355795,108.320175 20.420309,123.329079 17.520369,138.344528 
	C15.157306,150.580109 12.878607,162.832077 10.587354,175.081421 
	C9.348606,181.703934 10.934481,184.490524 16.435410,184.568222 
	C27.764614,184.728241 39.098553,184.697113 50.428711,184.574738 
	C54.930546,184.526108 57.760845,182.347137 58.747368,177.593842 
	C63.004730,157.080872 67.429222,136.602463 71.831688,116.119827 
	C73.089317,110.268700 74.103859,104.327408 75.903275,98.640533 
	C78.012016,91.976074 85.030655,88.895882 90.646507,91.563301 
	C95.031441,93.646049 96.344917,97.600685 94.860405,104.576599 
	C89.840919,128.163788 84.794647,151.745300 79.760559,175.329391 
	C78.376999,181.811203 80.425606,184.533035 86.976547,184.607178 
	C95.140938,184.699615 103.307091,184.639450 111.472488,184.638824 
	C127.480049,184.637573 127.466507,184.632965 130.714340,168.887207 
	C132.460800,160.420212 134.191772,151.948669 136.092667,143.515900 
	C136.540985,141.527039 136.473160,138.600784 139.083115,138.248749 
	C141.922302,137.865784 141.850327,141.024490 142.930328,142.728912 
	C143.191315,143.140823 143.258728,143.670578 143.454727,144.129227 
	C149.710403,158.767120 159.887604,169.819000 173.859039,177.416107 
	C188.202484,185.215530 203.617828,187.682114 219.735245,186.712860 
	C245.886505,185.140213 266.558380,173.913284 281.161072,151.929733 
	C281.999146,150.668091 282.347900,148.653488 284.897186,148.959717 
	C285.969421,151.481049 285.271118,154.079376 284.938019,156.646759 
	C284.082855,163.238571 282.953857,169.805008 282.381165,176.420288 
	C281.854340,182.505844 283.950012,184.560867 290.155792,184.607468 
	C301.153442,184.690094 312.152649,184.689758 323.150299,184.606918 
	C329.115326,184.561996 331.684387,182.382324 332.671112,176.572418 
	C334.646729,164.940109 336.379578,153.265442 338.458740,141.652313 
	C339.651764,134.988602 343.365143,132.155426 349.399475,132.615829 
	C354.803925,133.028168 358.015198,136.877808 358.369019,143.299149 
	C358.937317,153.612289 359.524048,163.918747 359.425232,174.260803 
	C359.355530,181.553345 362.477539,184.598572 369.791168,184.612030 
	C397.453461,184.662933 425.115936,184.659698 452.778229,184.611786 
	C459.303741,184.600479 462.032349,182.314117 463.688263,175.927567 
	C464.063538,174.480118 464.395538,173.021042 464.726105,171.562485 
	C470.386932,146.585999 476.078308,121.616333 481.666595,96.623619 
	C482.515411,92.827408 484.021698,89.975822 488.357452,89.910393 
	C494.521423,89.817390 500.687714,89.792046 506.852112,89.844345 
	C509.944214,89.870583 511.240204,91.237274 510.747498,94.635582 
	C509.913177,100.390121 509.265167,106.177788 509.359924,112.038155 
	C509.704834,133.369232 508.359497,154.663574 507.796204,175.975250 
	C507.635956,182.038864 509.848755,184.541122 515.996887,184.611969 
	C523.161438,184.694550 530.327759,184.635132 538.489990,184.637848 
z"/>
<path fill="#FFFFFF" opacity="1.000000" stroke="none" 
	d="
M235.727432,136.739197 
	C219.108902,150.765900 196.149292,145.450836 189.782623,126.416275 
	C185.675110,114.135986 191.123047,100.767960 202.964539,94.070755 
	C214.656372,87.458199 229.410431,89.917786 237.905334,99.895554 
	C246.414551,109.890137 246.443497,123.680817 237.965820,134.247620 
	C237.342743,135.024231 236.644455,135.740479 235.727432,136.739197 
z"/>
<path fill="#FFFFFF" opacity="1.000000" stroke="none" 
	d="
M426.730652,134.622955 
	C424.198517,144.696671 421.795105,154.378174 419.393921,164.060242 
	C419.273834,164.544403 419.217651,165.048630 419.056641,165.517731 
	C418.260315,167.837799 417.041718,170.135391 414.303558,169.857254 
	C411.109650,169.532806 410.847961,166.699203 410.749542,164.130219 
	C410.405609,155.151230 410.037842,146.172333 409.812531,137.190033 
	C409.724182,133.668365 409.368652,130.231506 408.304321,126.867119 
	C405.162170,116.934464 398.740723,110.329681 388.706818,107.254425 
	C382.851440,105.459831 382.703430,104.974922 386.208252,99.846863 
	C392.596161,90.500374 399.030609,81.185509 405.483307,71.883583 
	C406.618835,70.246666 407.849792,68.655579 409.200684,67.195015 
	C410.255188,66.054924 411.705475,65.333206 413.250641,66.146103 
	C414.806000,66.964355 414.934814,68.476028 414.589569,70.063683 
	C413.600769,74.611046 412.634644,79.163353 411.639069,83.709229 
	C410.783264,87.616547 411.919556,89.866791 416.333038,89.759445 
	C420.493713,89.658257 424.659058,89.718597 428.822052,89.751717 
	C436.248260,89.810806 437.496185,91.307121 435.763214,98.416306 
	C432.849884,110.367783 429.833069,122.294022 426.730652,134.622955 
z"/>
<path fill="#FFFFFF" opacity="1.000000" stroke="none" 
	d="
M559.846436,110.536636 
	C559.904480,106.450165 559.274597,102.766502 560.638123,99.210487 
	C562.285217,94.914856 566.152283,92.314766 570.251099,92.835098 
	C574.965515,93.433571 577.960327,96.628738 578.348755,101.516571 
	C578.427795,102.510666 578.403320,103.513466 578.414246,104.512390 
	C578.537415,115.745972 577.488159,116.691925 566.183350,115.994408 
	C562.818726,115.786812 560.335388,114.726692 559.846436,110.536636 
z"/>
</svg>