<svg width="289" height="54" viewBox="0 0 289 54" fill="none" xmlns="http://www.w3.org/2000/svg">
<path d="M0.529999 37.8474C0.176665 37.4541 0 36.9941 0 36.4674C0.266667 34.4141 0.519995 30.3407 0.759995 24.2474C0.999995 18.1607 1.47 13.4307 2.17 10.0574C2.30333 9.44407 2.94 9.1374 4.08 9.1374C5.21334 9.1374 6 9.3574 6.44 9.7974C7.8 11.5907 9.20333 14.6007 10.65 18.8274C12.09 23.0541 13.49 26.0674 14.85 27.8674C15.1567 27.0341 15.3533 26.2107 15.44 25.3974C15.5267 24.5907 15.5367 23.5307 15.47 22.2174C15.41 20.9041 15.38 20.0941 15.38 19.7874C15.38 18.3807 14.9833 15.9374 14.19 12.4574C13.4033 8.9774 13.1633 6.29407 13.47 4.4074C13.6033 3.4874 14.37 2.96407 15.77 2.8374C17.17 2.70407 18.0233 3.05407 18.33 3.8874C19.0767 5.85407 19.6467 8.1074 20.04 10.6474C20.4333 13.1874 20.6533 15.2807 20.7 16.9274C20.74 18.5674 20.76 20.9207 20.76 23.9874C20.76 24.6474 20.76 25.1307 20.76 25.4374C20.76 29.9441 19.8633 33.0974 18.07 34.8974C17.5033 35.5507 16.6933 35.9107 15.64 35.9774C14.5867 36.0441 13.7767 35.7707 13.21 35.1574C12.5967 34.4574 11.9833 33.6241 11.37 32.6574C10.7567 31.6974 10.2633 30.8674 9.89 30.1674C9.51667 29.4674 9.01334 28.4907 8.38 27.2374C7.74667 25.9907 7.29667 25.1274 7.03 24.6474C6.46333 26.1807 6.22333 28.3374 6.31 31.1174C6.39666 33.8974 6.26666 36.0541 5.92 37.5874C5.7 38.4207 4.95333 38.8907 3.67999 38.9974C2.41333 39.1107 1.36333 38.7274 0.529999 37.8474Z" fill="black"/>
<path d="M28.84 33.4474C26.6533 32.1341 25.1 30.2508 24.18 27.7974C23.26 25.3441 23.1733 22.8474 23.92 20.3074C24.3133 18.8608 25.08 17.3408 26.22 15.7474C27.3533 14.1474 27.9866 13.1941 28.12 12.8874C29 11.2208 30.3266 10.4741 32.1 10.6474C33.8733 10.8274 35.4366 11.6608 36.79 13.1474C38.2366 14.8141 39.31 16.9608 40.01 19.5874C41.1966 24.0141 39.6866 28.4374 35.48 32.8574C34.78 33.6041 33.7166 34.0208 32.29 34.1074C30.87 34.1941 29.72 33.9741 28.84 33.4474ZM30.95 26.9474C32.4366 27.2941 33.53 26.9641 34.23 25.9574C34.93 24.9508 35.1166 23.6608 34.79 22.0874C34.4633 20.5074 33.73 19.0841 32.59 17.8174C32.11 17.2908 31.2766 17.7041 30.09 19.0574C28.47 20.8574 27.77 22.5874 27.99 24.2474C28.1633 25.6541 29.15 26.5541 30.95 26.9474Z" fill="black"/>
<path d="M40.7401 16.1674C40.8267 14.9875 40.7501 13.3675 40.5101 11.3075C40.2701 9.24745 40.1167 7.62745 40.0501 6.44745C39.9834 5.26745 40.2134 3.77745 40.7401 1.97745C41.0467 1.23745 41.7467 0.680783 42.8401 0.30745C43.9334 -0.0658832 45.0067 -0.099215 46.0601 0.207452C46.6267 0.774118 46.9101 1.25412 46.9101 1.64745C46.9101 3.44745 46.7901 6.50412 46.5501 10.8175C46.3101 15.1308 46.2334 18.4908 46.3201 20.8975C46.4067 21.0775 46.5501 21.1875 46.7501 21.2275C46.9434 21.2741 47.1734 21.2741 47.4401 21.2275L47.8301 21.1674C48.1367 20.9474 48.7601 20.4541 49.7001 19.6875C50.6467 18.9208 51.3601 18.3841 51.8401 18.0775C52.3201 17.7708 52.9667 17.4408 53.7801 17.0875C54.5867 16.7408 55.3734 16.6208 56.1401 16.7275C56.9067 16.8408 57.6867 17.1375 58.4801 17.6175C59.2201 18.1441 59.4501 18.7341 59.1701 19.3875C58.8834 20.0475 58.3667 20.5508 57.6201 20.8975C57.3134 21.1175 56.2967 21.7108 54.5701 22.6775C52.8367 23.6375 51.5767 24.5141 50.7901 25.3075C53.6767 27.4941 58.0134 31.2374 63.8001 36.5374C64.5867 37.5441 64.3001 38.5308 62.9401 39.4975C62.3734 40.2375 61.5967 40.6308 60.6101 40.6775C59.6234 40.7175 58.9134 40.4341 58.4801 39.8274C57.5134 38.8608 56.4834 37.9074 55.3901 36.9674C54.2967 36.0208 52.9601 34.9141 51.3801 33.6474C49.8001 32.3741 48.7034 31.4775 48.0901 30.9575C48.0901 30.9575 47.8934 30.8675 47.5001 30.6875C47.1934 30.6875 47.1067 30.9741 47.2401 31.5475C47.1067 32.4208 47.1934 33.8008 47.5001 35.6875C47.8067 37.5675 47.9167 38.9474 47.8301 39.8274C47.7434 40.6141 47.3167 41.2041 46.5501 41.5975C45.7834 41.9908 45.0067 42.1441 44.2201 42.0574C43.4334 41.9708 42.9501 41.7075 42.7701 41.2675C41.7634 38.9008 41.0734 36.1308 40.7001 32.9575C40.3334 29.7841 40.1801 27.1675 40.2401 25.1075C40.3067 23.0475 40.4734 20.0675 40.7401 16.1674Z" fill="black"/>
<path d="M75.3601 12.6875C75.4067 12.2942 75.5601 11.2975 75.8201 9.69749C76.0801 8.09749 76.2567 6.86082 76.3501 5.98749C76.5234 4.50082 77.4201 3.64749 79.0401 3.42749C80.6601 3.20749 82.0834 3.53415 83.3101 4.40749C83.8767 4.98082 83.9867 5.72749 83.6401 6.64749C81.9334 10.3675 81.0801 14.8342 81.0801 20.0475C81.4267 20.0008 82.0401 19.9342 82.9201 19.8475C86.8134 19.3208 89.1767 19.4108 90.0101 20.1175C90.4901 20.5975 90.6001 21.2975 90.3401 22.2175C90.2067 22.6508 89.9867 23.0342 89.6801 23.3675C89.3734 23.6942 88.9467 23.9575 88.4001 24.1575C87.8534 24.3508 87.3734 24.5142 86.9601 24.6475C86.5401 24.7808 85.9367 24.8675 85.1501 24.9075C84.3634 24.9542 83.7834 24.9875 83.4101 25.0075C83.0367 25.0275 82.4134 25.0275 81.5401 25.0075C80.6601 24.9875 80.1334 24.9775 79.9601 24.9775C79.7401 26.4642 79.9267 30.9308 80.5201 38.3775C81.1067 45.8242 81.3567 50.1375 81.2701 51.3175C81.2301 51.9775 81.0001 52.5142 80.5801 52.9275C80.1667 53.3475 79.6301 53.5575 78.9701 53.5575C78.1834 53.5575 77.5934 53.4142 77.2001 53.1275C76.8067 52.8408 76.4767 52.2808 76.2101 51.4475C75.8167 50.3542 75.4134 46.0208 75.0001 38.4475C74.5801 30.8675 74.0201 26.4408 73.3201 25.1675C72.4001 25.8742 71.3934 26.4242 70.3001 26.8175C69.2067 27.2108 68.1234 27.2975 67.0501 27.0775C65.9767 26.8575 65.2434 26.2008 64.8501 25.1075C64.6767 24.6675 64.7734 24.1642 65.1401 23.5975C65.5134 23.0242 65.9634 22.5642 66.4901 22.2175C67.0567 21.9108 68.3167 21.5475 70.2701 21.1275C72.2167 20.7142 73.4967 20.1342 74.1101 19.3875C74.5034 18.9075 74.7667 18.3075 74.9001 17.5875C75.0334 16.8608 75.1334 15.9708 75.2001 14.9175C75.2601 13.8708 75.3134 13.1275 75.3601 12.6875Z" fill="black"/>
<path d="M107.42 43.4374C107.073 43.2174 106.713 42.7674 106.34 42.0874C105.967 41.4074 105.627 41.0674 105.32 41.0674C104.707 40.9807 103.777 40.8507 102.53 40.6774C101.277 40.5041 100.29 40.3407 99.57 40.1874C98.85 40.0341 98.0067 39.8041 97.04 39.4974C96.08 39.1907 95.2467 38.7507 94.54 38.1774C93.84 37.6107 93.25 36.9107 92.77 36.0774C91.9367 34.8041 91.61 33.2374 91.79 31.3774C91.9634 29.5174 92.4867 28.0174 93.36 26.8774C94.3667 25.5241 95.55 24.4407 96.91 23.6274C98.27 22.8141 99.5734 22.2774 100.82 22.0174C102.067 21.7574 103.237 21.6141 104.33 21.5874C105.43 21.5674 106.33 21.6007 107.03 21.6874L108.08 21.7574C108.427 21.3174 108.6 20.5507 108.6 19.4574C108.6 18.3641 108.273 17.7507 107.62 17.6174C106.96 17.3107 106.073 17.2441 104.96 17.4174C103.84 17.5907 103.05 17.7441 102.59 17.8774C102.13 18.0107 101.363 18.3074 100.29 18.7674C99.2167 19.2274 98.3967 19.5441 97.83 19.7174C96.69 20.1107 95.8567 19.4874 95.33 17.8474C94.8034 16.2007 94.76 15.1607 95.2 14.7274C96.8667 13.5874 98.8367 12.7341 101.11 12.1674C103.39 11.5941 105.657 11.5807 107.91 12.1274C110.17 12.6741 111.76 13.9107 112.68 15.8374C113.293 17.1107 113.633 18.5241 113.7 20.0774C113.76 21.6307 113.65 23.0207 113.37 24.2474C113.083 25.4741 112.753 26.9541 112.38 28.6874C112.007 30.4141 111.777 31.8907 111.69 33.1174C111.343 38.6374 110.71 41.9907 109.79 43.1774C109.13 43.9174 108.34 44.0041 107.42 43.4374ZM106.24 35.4874C106.373 34.8741 106.57 34.1074 106.83 33.1874C107.09 32.2674 107.297 31.5241 107.45 30.9574C107.603 30.3841 107.67 29.6941 107.65 28.8874C107.63 28.0741 107.443 27.2507 107.09 26.4174C106.39 26.6841 105.33 26.9374 103.91 27.1774C102.483 27.4174 101.3 27.6341 100.36 27.8274C99.42 28.0274 98.5534 28.5107 97.76 29.2774C96.9734 30.0441 96.56 31.0841 96.52 32.3974C96.52 33.2774 97.3167 34.0674 98.91 34.7674C100.51 35.4674 102.033 35.8374 103.48 35.8774C104.927 35.9241 105.847 35.7941 106.24 35.4874Z" fill="black"/>
<path d="M137.38 41.9274C136.68 42.1874 136.09 42.0774 135.61 41.5974C135.123 41.1174 134.86 40.5907 134.82 40.0174C134.6 36.0774 134.863 30.4374 135.61 23.0974C136.35 15.7641 136.72 10.5207 136.72 7.36739C136.72 7.06073 136.643 6.84073 136.49 6.70739C136.337 6.58073 136.12 6.53739 135.84 6.57739C135.553 6.62406 135.3 6.69073 135.08 6.77739C134.86 6.86406 134.577 6.97406 134.23 7.10739C133.877 7.23406 133.633 7.32073 133.5 7.36739C133.24 7.41406 132.353 7.77406 130.84 8.44739C129.333 9.12739 128.207 9.29406 127.46 8.94739C126.367 8.46073 125.863 7.62739 125.95 6.44739C126.037 5.26739 126.65 4.39073 127.79 3.81739C130.157 2.63739 132.38 1.76073 134.46 1.18739C136.54 0.620727 138.443 0.31406 140.17 0.267393C141.903 0.227393 143.853 0.207394 146.02 0.207394C148.187 0.207394 150.52 0.164059 153.02 0.0773926C153.107 0.0773926 153.203 0.154059 153.31 0.307392C153.423 0.460725 153.543 0.647393 153.67 0.867393C153.803 1.08073 153.893 1.23073 153.94 1.31739C154.247 2.23739 154.113 3.08073 153.54 3.84739C152.973 4.61406 152.163 5.17406 151.11 5.52739C149.357 5.88073 148.13 6.05739 147.43 6.05739C146.73 6.05739 145.613 6.07739 144.08 6.11739C142.507 13.8241 141.543 24.6874 141.19 38.7074C141.19 39.8007 139.92 40.8741 137.38 41.9274Z" fill="black"/>
<path d="M156.83 25.4374C156.83 21.9774 157.223 19.4808 158.01 17.9474C158.45 17.1141 159.173 16.5541 160.18 16.2674C161.187 15.9808 162.173 16.0574 163.14 16.4974C163.84 16.8041 164.363 17.2541 164.71 17.8474C165.063 18.4408 165.02 19.0441 164.58 19.6574C163.793 20.7508 163.357 22.2808 163.27 24.2474C163.183 26.2208 163.05 27.4708 162.87 27.9974C162.477 29.0041 162.443 30.5374 162.77 32.5974C163.103 34.6574 163.137 36.1908 162.87 37.1974C162.87 37.3241 162.807 37.4974 162.68 37.7174C162.547 37.9374 162.413 38.0474 162.28 38.0474C159.347 38.8808 157.617 38.4874 157.09 36.8674C156.743 35.7274 156.547 34.5341 156.5 33.2874C156.453 32.0408 156.497 30.5941 156.63 28.9474C156.763 27.3074 156.83 26.1374 156.83 25.4374ZM158.47 10.5874C157.99 9.88742 157.893 9.00075 158.18 7.92742C158.46 6.85409 158.863 6.14075 159.39 5.78742C160.397 5.17409 161.493 4.91075 162.68 4.99742C163.86 5.09075 164.733 5.55075 165.3 6.37742C165.827 7.17075 165.84 8.16742 165.34 9.36742C164.833 10.5741 164.23 11.3741 163.53 11.7674C162.783 12.2074 161.94 12.3274 161 12.1274C160.06 11.9341 159.217 11.4208 158.47 10.5874Z" fill="black"/>
<path d="M167.87 24.9775C168.57 20.8175 170.387 17.4442 173.32 14.8575C173.407 14.7708 173.767 14.4408 174.4 13.8675C175.04 13.3008 175.447 12.9408 175.62 12.7875C175.793 12.6342 176.187 12.3042 176.8 11.7975C177.413 11.2975 177.853 10.9608 178.12 10.7875C178.38 10.6075 178.807 10.3308 179.4 9.95749C179.987 9.59082 180.457 9.35082 180.81 9.23748C181.157 9.13082 181.617 8.98749 182.19 8.80749C182.757 8.63415 183.25 8.54749 183.67 8.54749C184.083 8.54749 184.553 8.59082 185.08 8.67749C185.607 8.76415 186.11 8.91749 186.59 9.13749C187.597 9.57749 187.88 10.4342 187.44 11.7075C187.047 12.8875 186.423 13.7942 185.57 14.4275C184.717 15.0608 183.633 15.6408 182.32 16.1675C181.007 16.6942 179.977 17.2208 179.23 17.7475C175.99 20.2408 174.283 22.8675 174.11 25.6275C173.93 28.0808 174.39 30.1175 175.49 31.7375C175.797 32.2642 176.213 32.7142 176.74 33.0875C177.26 33.4608 177.72 33.7242 178.12 33.8775C178.513 34.0308 179.103 34.2275 179.89 34.4675C180.677 34.7075 181.223 34.8942 181.53 35.0275C182.537 35.4208 183.543 35.3342 184.55 34.7675C185.557 34.1942 186.567 33.5142 187.58 32.7275C188.587 31.9408 189.46 31.5242 190.2 31.4775C190.86 31.4375 191.31 31.6142 191.55 32.0075C191.79 32.4008 191.847 32.9042 191.72 33.5175C191.587 34.1308 191.42 34.6875 191.22 35.1875C191.027 35.6942 190.82 36.1208 190.6 36.4675C188.013 40.4142 183.193 41.3808 176.14 39.3675C173.12 38.4875 170.853 36.6908 169.34 33.9775C167.833 31.2575 167.343 28.2575 167.87 24.9775Z" fill="black"/>
<path d="M192.44 16.1674C192.527 14.9875 192.45 13.3675 192.21 11.3075C191.97 9.24745 191.817 7.62745 191.75 6.44745C191.683 5.26745 191.913 3.77745 192.44 1.97745C192.747 1.23745 193.447 0.680783 194.54 0.30745C195.633 -0.0658832 196.707 -0.099215 197.76 0.207452C198.327 0.774118 198.61 1.25412 198.61 1.64745C198.61 3.44745 198.49 6.50412 198.25 10.8175C198.01 15.1308 197.933 18.4908 198.02 20.8975C198.107 21.0775 198.25 21.1875 198.45 21.2275C198.643 21.2741 198.873 21.2741 199.14 21.2275L199.53 21.1674C199.837 20.9474 200.463 20.4541 201.41 19.6875C202.35 18.9208 203.06 18.3841 203.54 18.0775C204.02 17.7708 204.667 17.4408 205.48 17.0875C206.287 16.7408 207.073 16.6208 207.84 16.7275C208.607 16.8408 209.387 17.1375 210.18 17.6175C210.92 18.1441 211.15 18.7341 210.87 19.3875C210.583 20.0475 210.067 20.5508 209.32 20.8975C209.013 21.1175 207.997 21.7108 206.27 22.6775C204.537 23.6375 203.277 24.5141 202.49 25.3075C205.383 27.4941 209.72 31.2374 215.5 36.5374C216.287 37.5441 216 38.5308 214.64 39.4975C214.073 40.2375 213.297 40.6308 212.31 40.6775C211.323 40.7175 210.613 40.4341 210.18 39.8274C209.213 38.8608 208.183 37.9074 207.09 36.9674C205.997 36.0208 204.66 34.9141 203.08 33.6474C201.507 32.3741 200.413 31.4775 199.8 30.9575C199.8 30.9575 199.6 30.8675 199.2 30.6875C198.893 30.6875 198.807 30.9741 198.94 31.5475C198.807 32.4208 198.893 33.8008 199.2 35.6875C199.507 37.5675 199.617 38.9474 199.53 39.8274C199.443 40.6141 199.017 41.2041 198.25 41.5975C197.483 41.9908 196.707 42.1441 195.92 42.0574C195.133 41.9708 194.65 41.7075 194.47 41.2675C193.463 38.9008 192.773 36.1308 192.4 32.9575C192.033 29.7841 191.883 27.1675 191.95 25.1075C192.01 23.0475 192.173 20.0675 192.44 16.1674Z" fill="black"/>
<path d="M217.4 23.5275C217.313 20.2408 218.343 17.5908 220.49 15.5775C222.637 13.5642 225.31 12.7775 228.51 13.2175C231.137 13.5642 233.423 14.8342 235.37 17.0275C237.323 19.2142 238.277 21.6675 238.23 24.3875C237.837 25.6142 236.03 27.1775 232.81 29.0775C229.59 30.9842 227.76 32.1575 227.32 32.5975C227.107 32.6375 226.833 32.8108 226.5 33.1175C226.173 33.4242 226.097 33.7108 226.27 33.9775C226.797 34.9375 227.453 35.6142 228.24 36.0075C229.033 36.4075 229.923 36.5175 230.91 36.3375C231.89 36.1642 232.787 35.9242 233.6 35.6175C234.407 35.3108 235.36 34.8742 236.46 34.3075C237.593 35.1808 237.953 36.3508 237.54 37.8175C237.127 39.2842 236.24 40.1275 234.88 40.3475C234.793 40.3475 234.31 40.4242 233.43 40.5775C232.557 40.7308 232.01 40.8175 231.79 40.8375C231.57 40.8642 231.09 40.9075 230.35 40.9675C229.603 41.0342 229.033 41.0342 228.64 40.9675C228.247 40.9075 227.763 40.8208 227.19 40.7075C226.623 40.6008 226.077 40.4375 225.55 40.2175C220.297 37.8508 217.58 32.2875 217.4 23.5275ZM224.57 26.8775C228.51 26.7042 230.873 25.3242 231.66 22.7375C232.36 21.2042 231.79 20.0342 229.95 19.2275C228.11 18.4142 226.467 18.3808 225.02 19.1275C224.147 19.6075 223.567 20.4708 223.28 21.7175C223 22.9708 223.013 24.1342 223.32 25.2075C223.627 26.2808 224.043 26.8375 224.57 26.8775Z" fill="black"/>
<path d="M249.33 12.6875C249.377 12.2942 249.53 11.2975 249.79 9.69749C250.057 8.09749 250.233 6.86082 250.32 5.98749C250.493 4.50082 251.39 3.64749 253.01 3.42749C254.63 3.20749 256.053 3.53415 257.28 4.40749C257.853 4.98082 257.963 5.72749 257.61 6.64749C255.903 10.3675 255.05 14.8342 255.05 20.0475C255.403 20.0008 256.017 19.9342 256.89 19.8475C260.79 19.3208 263.157 19.4108 263.99 20.1175C264.47 20.5975 264.577 21.2975 264.31 22.2175C264.183 22.6508 263.967 23.0342 263.66 23.3675C263.353 23.6942 262.927 23.9575 262.38 24.1575C261.827 24.3508 261.343 24.5142 260.93 24.6475C260.517 24.7808 259.913 24.8675 259.12 24.9075C258.333 24.9542 257.753 24.9875 257.38 25.0075C257.007 25.0275 256.383 25.0275 255.51 25.0075C254.637 24.9875 254.11 24.9775 253.93 24.9775C253.71 26.4642 253.897 30.9308 254.49 38.3775C255.083 45.8242 255.337 50.1375 255.25 51.3175C255.203 51.9775 254.973 52.5142 254.56 52.9275C254.14 53.3475 253.603 53.5575 252.95 53.5575C252.157 53.5575 251.563 53.4142 251.17 53.1275C250.777 52.8408 250.45 52.2808 250.19 51.4475C249.797 50.3542 249.39 46.0208 248.97 38.4475C248.557 30.8675 248 26.4408 247.3 25.1675C246.38 25.8742 245.373 26.4242 244.28 26.8175C243.18 27.2108 242.093 27.2975 241.02 27.0775C239.947 26.8575 239.213 26.2008 238.82 25.1075C238.647 24.6675 238.747 24.1642 239.12 23.5975C239.493 23.0242 239.94 22.5642 240.46 22.2175C241.033 21.9108 242.293 21.5475 244.24 21.1275C246.193 20.7142 247.477 20.1342 248.09 19.3875C248.483 18.9075 248.743 18.3075 248.87 17.5875C249.003 16.8608 249.103 15.9708 249.17 14.9175C249.237 13.8708 249.29 13.1275 249.33 12.6875Z" fill="black"/>
<path d="M279.16 12.6874C279.553 12.8608 280.353 13.1774 281.56 13.6374C282.767 14.0974 283.653 14.4608 284.22 14.7274C284.787 14.9874 285.443 15.4141 286.19 16.0074C286.937 16.6008 287.483 17.2674 287.83 18.0074C288.097 18.4941 288.087 19.1074 287.8 19.8474C287.513 20.5941 287.173 21.0974 286.78 21.3574C285.86 21.9308 284.613 21.7774 283.04 20.8974C281.46 20.0241 280.003 19.2141 278.67 18.4674C277.337 17.7274 275.727 17.8174 273.84 18.7374C273.007 19.3041 272.983 20.1574 273.77 21.2974C274.563 22.4374 275.397 23.1608 276.27 23.4674C280.823 25.0874 284.283 26.9908 286.65 29.1774C287.53 30.2308 287.913 31.4574 287.8 32.8574C287.693 34.2574 287.243 35.5941 286.45 36.8674C285.317 38.7941 283.457 40.3141 280.87 41.4274C278.283 42.5474 275.633 42.8241 272.92 42.2574C270.207 41.6841 268.237 40.1274 267.01 37.5874C266.57 36.7141 266.723 35.8508 267.47 34.9974C268.21 34.1441 269.087 33.6708 270.1 33.5774C270.667 33.5374 271.223 33.9774 271.77 34.8974C272.317 35.8174 272.767 36.3641 273.12 36.5374C274.653 37.4108 276.447 37.4441 278.5 36.6374C280.56 35.8241 281.59 34.5208 281.59 32.7274C281.59 32.2874 281.25 31.7741 280.57 31.1874C279.897 30.5941 279.23 30.1441 278.57 29.8374C278.09 29.6174 277.017 29.1674 275.35 28.4874C273.683 27.8074 272.49 27.2941 271.77 26.9474C271.05 26.5941 270.197 26.0008 269.21 25.1674C268.223 24.3408 267.49 23.4008 267.01 22.3474C266.217 20.7274 266.543 19.0074 267.99 17.1874C269.437 15.3674 271.31 14.0108 273.61 13.1174C275.91 12.2174 277.76 12.0741 279.16 12.6874Z" fill="black"/>
</svg>
