<svg width="289" height="226" viewBox="0 0 289 226" fill="none" xmlns="http://www.w3.org/2000/svg">
<path opacity="0.8" d="M141.276 150.895C175.387 150.895 203.039 123.243 203.039 89.1327C203.039 55.0224 175.387 27.3706 141.276 27.3706C107.166 27.3706 79.5144 55.0224 79.5144 89.1327C79.5144 123.243 107.166 150.895 141.276 150.895Z" fill="url(#paint0_linear_5123_209)"/>
<path opacity="0.8" d="M177.726 102.804C199.108 102.804 216.442 85.4697 216.442 64.0871C216.442 42.7046 199.108 25.3706 177.726 25.3706C156.343 25.3706 139.009 42.7046 139.009 64.0871C139.009 85.4697 156.343 102.804 177.726 102.804Z" fill="url(#paint1_linear_5123_209)"/>
<path opacity="0.8" d="M115.517 25.2465C88.8889 29.6044 70.835 54.7239 75.1929 81.3524C79.5508 107.981 104.67 126.035 131.299 121.677C157.927 117.319 175.981 92.1995 171.623 65.571C167.265 38.9425 142.146 20.8886 115.517 25.2465Z" fill="url(#paint2_linear_5123_209)"/>
<path opacity="0.8" d="M169.146 147.845C188.844 147.845 204.813 131.876 204.813 112.178C204.813 92.4798 188.844 76.5111 169.146 76.5111C149.447 76.5111 133.479 92.4798 133.479 112.178C133.479 131.876 149.447 147.845 169.146 147.845Z" fill="url(#paint3_linear_5123_209)"/>
<path d="M0.529999 209.44C0.176665 209.046 0 208.586 0 208.06C0.266667 206.006 0.519995 201.933 0.759995 195.84C0.999995 189.753 1.47 185.023 2.17 181.65C2.30333 181.036 2.94 180.73 4.08 180.73C5.21334 180.73 6 180.95 6.44 181.39C7.8 183.183 9.20333 186.193 10.65 190.42C12.09 194.646 13.49 197.66 14.85 199.46C15.1567 198.626 15.3533 197.803 15.44 196.99C15.5267 196.183 15.5367 195.123 15.47 193.81C15.41 192.496 15.38 191.686 15.38 191.38C15.38 189.973 14.9833 187.53 14.19 184.05C13.4033 180.57 13.1633 177.886 13.47 176C13.6033 175.08 14.37 174.556 15.77 174.43C17.17 174.296 18.0233 174.646 18.33 175.48C19.0767 177.446 19.6467 179.7 20.04 182.24C20.4333 184.78 20.6533 186.873 20.7 188.52C20.74 190.16 20.76 192.513 20.76 195.58C20.76 196.24 20.76 196.723 20.76 197.03C20.76 201.536 19.8633 204.69 18.07 206.49C17.5033 207.143 16.6933 207.503 15.64 207.57C14.5867 207.636 13.7767 207.363 13.21 206.75C12.5967 206.05 11.9833 205.216 11.37 204.25C10.7567 203.29 10.2633 202.46 9.89 201.76C9.51667 201.06 9.01334 200.083 8.38 198.83C7.74667 197.583 7.29667 196.72 7.03 196.24C6.46333 197.773 6.22333 199.93 6.31 202.71C6.39666 205.49 6.26666 207.646 5.92 209.18C5.7 210.013 4.95333 210.483 3.67999 210.59C2.41333 210.703 1.36333 210.32 0.529999 209.44Z" fill="black"/>
<path d="M28.84 205.04C26.6533 203.726 25.1 201.843 24.18 199.39C23.26 196.936 23.1733 194.44 23.92 191.9C24.3133 190.453 25.08 188.933 26.22 187.34C27.3533 185.74 27.9866 184.786 28.12 184.48C29 182.813 30.3266 182.066 32.1 182.24C33.8733 182.42 35.4366 183.253 36.79 184.74C38.2366 186.406 39.31 188.553 40.01 191.18C41.1966 195.606 39.6866 200.03 35.48 204.45C34.78 205.196 33.7166 205.613 32.29 205.7C30.87 205.786 29.72 205.566 28.84 205.04ZM30.95 198.54C32.4366 198.886 33.53 198.556 34.23 197.55C34.93 196.543 35.1166 195.253 34.79 193.68C34.4633 192.1 33.73 190.676 32.59 189.41C32.11 188.883 31.2766 189.296 30.09 190.65C28.47 192.45 27.77 194.18 27.99 195.84C28.1633 197.246 29.15 198.146 30.95 198.54Z" fill="black"/>
<path d="M40.7401 187.76C40.8267 186.58 40.7501 184.96 40.5101 182.9C40.2701 180.84 40.1167 179.22 40.0501 178.04C39.9834 176.86 40.2134 175.37 40.7401 173.57C41.0467 172.83 41.7467 172.273 42.8401 171.9C43.9334 171.526 45.0067 171.493 46.0601 171.8C46.6267 172.366 46.9101 172.846 46.9101 173.24C46.9101 175.04 46.7901 178.096 46.5501 182.41C46.3101 186.723 46.2334 190.083 46.3201 192.49C46.4067 192.67 46.5501 192.78 46.7501 192.82C46.9434 192.866 47.1734 192.866 47.4401 192.82L47.8301 192.76C48.1367 192.54 48.7601 192.046 49.7001 191.28C50.6467 190.513 51.3601 189.976 51.8401 189.67C52.3201 189.363 52.9667 189.033 53.7801 188.68C54.5867 188.333 55.3734 188.213 56.1401 188.32C56.9067 188.433 57.6867 188.73 58.4801 189.21C59.2201 189.736 59.4501 190.326 59.1701 190.98C58.8834 191.64 58.3667 192.143 57.6201 192.49C57.3134 192.71 56.2967 193.303 54.5701 194.27C52.8367 195.23 51.5767 196.106 50.7901 196.9C53.6767 199.086 58.0134 202.83 63.8001 208.13C64.5867 209.136 64.3001 210.123 62.9401 211.09C62.3734 211.83 61.5967 212.223 60.6101 212.27C59.6234 212.31 58.9134 212.026 58.4801 211.42C57.5134 210.453 56.4834 209.5 55.3901 208.56C54.2967 207.613 52.9601 206.506 51.3801 205.24C49.8001 203.966 48.7034 203.07 48.0901 202.55C48.0901 202.55 47.8934 202.46 47.5001 202.28C47.1934 202.28 47.1067 202.566 47.2401 203.14C47.1067 204.013 47.1934 205.393 47.5001 207.28C47.8067 209.16 47.9167 210.54 47.8301 211.42C47.7434 212.206 47.3167 212.796 46.5501 213.19C45.7834 213.583 45.0067 213.736 44.2201 213.65C43.4334 213.563 42.9501 213.3 42.7701 212.86C41.7634 210.493 41.0734 207.723 40.7001 204.55C40.3334 201.376 40.1801 198.76 40.2401 196.7C40.3067 194.64 40.4734 191.66 40.7401 187.76Z" fill="black"/>
<path d="M75.3601 184.28C75.4067 183.886 75.5601 182.89 75.8201 181.29C76.0801 179.69 76.2567 178.453 76.3501 177.58C76.5234 176.093 77.4201 175.24 79.0401 175.02C80.6601 174.8 82.0834 175.126 83.3101 176C83.8767 176.573 83.9867 177.32 83.6401 178.24C81.9334 181.96 81.0801 186.426 81.0801 191.64C81.4267 191.593 82.0401 191.526 82.9201 191.44C86.8134 190.913 89.1767 191.003 90.0101 191.71C90.4901 192.19 90.6001 192.89 90.3401 193.81C90.2067 194.243 89.9867 194.626 89.6801 194.96C89.3734 195.286 88.9467 195.55 88.4001 195.75C87.8534 195.943 87.3734 196.106 86.9601 196.24C86.5401 196.373 85.9367 196.46 85.1501 196.5C84.3634 196.546 83.7834 196.58 83.4101 196.6C83.0367 196.62 82.4134 196.62 81.5401 196.6C80.6601 196.58 80.1334 196.57 79.9601 196.57C79.7401 198.056 79.9267 202.523 80.5201 209.97C81.1067 217.416 81.3567 221.73 81.2701 222.91C81.2301 223.57 81.0001 224.106 80.5801 224.52C80.1667 224.94 79.6301 225.15 78.9701 225.15C78.1834 225.15 77.5934 225.006 77.2001 224.72C76.8067 224.433 76.4767 223.873 76.2101 223.04C75.8167 221.946 75.4134 217.613 75.0001 210.04C74.5801 202.46 74.0201 198.033 73.3201 196.76C72.4001 197.466 71.3934 198.016 70.3001 198.41C69.2067 198.803 68.1234 198.89 67.0501 198.67C65.9767 198.45 65.2434 197.793 64.8501 196.7C64.6767 196.26 64.7734 195.756 65.1401 195.19C65.5134 194.616 65.9634 194.156 66.4901 193.81C67.0567 193.503 68.3167 193.14 70.2701 192.72C72.2167 192.306 73.4967 191.726 74.1101 190.98C74.5034 190.5 74.7667 189.9 74.9001 189.18C75.0334 188.453 75.1334 187.563 75.2001 186.51C75.2601 185.463 75.3134 184.72 75.3601 184.28Z" fill="black"/>
<path d="M107.42 215.03C107.073 214.81 106.713 214.36 106.34 213.68C105.967 213 105.627 212.66 105.32 212.66C104.707 212.573 103.777 212.443 102.53 212.27C101.277 212.096 100.29 211.933 99.5699 211.78C98.8499 211.626 98.0066 211.396 97.0399 211.09C96.0799 210.783 95.2466 210.343 94.5399 209.77C93.8399 209.203 93.2499 208.503 92.7699 207.67C91.9366 206.396 91.6099 204.83 91.7899 202.97C91.9632 201.11 92.4866 199.61 93.3599 198.47C94.3666 197.116 95.5499 196.033 96.9099 195.22C98.2699 194.406 99.5732 193.87 100.82 193.61C102.067 193.35 103.237 193.206 104.33 193.18C105.43 193.16 106.33 193.193 107.03 193.28L108.08 193.35C108.427 192.91 108.6 192.143 108.6 191.05C108.6 189.956 108.273 189.343 107.62 189.21C106.96 188.903 106.073 188.836 104.96 189.01C103.84 189.183 103.05 189.336 102.59 189.47C102.13 189.603 101.363 189.9 100.29 190.36C99.2166 190.82 98.3966 191.136 97.8299 191.31C96.6899 191.703 95.8566 191.08 95.3299 189.44C94.8032 187.793 94.7599 186.753 95.1999 186.32C96.8666 185.18 98.8366 184.326 101.11 183.76C103.39 183.186 105.657 183.173 107.91 183.72C110.17 184.266 111.76 185.503 112.68 187.43C113.293 188.703 113.633 190.116 113.7 191.67C113.76 193.223 113.65 194.613 113.37 195.84C113.083 197.066 112.753 198.546 112.38 200.28C112.007 202.006 111.777 203.483 111.69 204.71C111.343 210.23 110.71 213.583 109.79 214.77C109.13 215.51 108.34 215.596 107.42 215.03ZM106.24 207.08C106.373 206.466 106.57 205.7 106.83 204.78C107.09 203.86 107.297 203.116 107.45 202.55C107.603 201.976 107.67 201.286 107.65 200.48C107.63 199.666 107.443 198.843 107.09 198.01C106.39 198.276 105.33 198.53 103.91 198.77C102.483 199.01 101.3 199.226 100.36 199.42C99.4199 199.62 98.5532 200.103 97.7599 200.87C96.9732 201.636 96.5599 202.676 96.5199 203.99C96.5199 204.87 97.3166 205.66 98.9099 206.36C100.51 207.06 102.033 207.43 103.48 207.47C104.927 207.516 105.847 207.386 106.24 207.08Z" fill="black"/>
<path d="M137.38 213.52C136.68 213.78 136.09 213.67 135.61 213.19C135.123 212.71 134.86 212.183 134.82 211.61C134.6 207.67 134.863 202.03 135.61 194.69C136.35 187.356 136.72 182.113 136.72 178.96C136.72 178.653 136.643 178.433 136.49 178.3C136.337 178.173 136.12 178.13 135.84 178.17C135.553 178.216 135.3 178.283 135.08 178.37C134.86 178.456 134.577 178.566 134.23 178.7C133.877 178.826 133.633 178.913 133.5 178.96C133.24 179.006 132.353 179.366 130.84 180.04C129.333 180.72 128.207 180.886 127.46 180.54C126.367 180.053 125.863 179.22 125.95 178.04C126.037 176.86 126.65 175.983 127.79 175.41C130.157 174.23 132.38 173.353 134.46 172.78C136.54 172.213 138.443 171.906 140.17 171.86C141.903 171.82 143.853 171.8 146.02 171.8C148.187 171.8 150.52 171.756 153.02 171.67C153.107 171.67 153.203 171.746 153.31 171.9C153.423 172.053 153.543 172.24 153.67 172.46C153.803 172.673 153.893 172.823 153.94 172.91C154.247 173.83 154.113 174.673 153.54 175.44C152.973 176.206 152.163 176.766 151.11 177.12C149.357 177.473 148.13 177.65 147.43 177.65C146.73 177.65 145.613 177.67 144.08 177.71C142.507 185.416 141.543 196.28 141.19 210.3C141.19 211.393 139.92 212.466 137.38 213.52Z" fill="black"/>
<path d="M156.83 197.03C156.83 193.57 157.223 191.073 158.01 189.54C158.45 188.706 159.173 188.146 160.18 187.86C161.187 187.573 162.173 187.65 163.14 188.09C163.84 188.396 164.363 188.846 164.71 189.44C165.063 190.033 165.02 190.636 164.58 191.25C163.793 192.343 163.357 193.873 163.27 195.84C163.183 197.813 163.05 199.063 162.87 199.59C162.477 200.596 162.443 202.13 162.77 204.19C163.103 206.25 163.137 207.783 162.87 208.79C162.87 208.916 162.807 209.09 162.68 209.31C162.547 209.53 162.413 209.64 162.28 209.64C159.347 210.473 157.617 210.08 157.09 208.46C156.743 207.32 156.547 206.126 156.5 204.88C156.453 203.633 156.497 202.186 156.63 200.54C156.763 198.9 156.83 197.73 156.83 197.03ZM158.47 182.18C157.99 181.48 157.893 180.593 158.18 179.52C158.46 178.446 158.863 177.733 159.39 177.38C160.397 176.766 161.493 176.503 162.68 176.59C163.86 176.683 164.733 177.143 165.3 177.97C165.827 178.763 165.84 179.76 165.34 180.96C164.833 182.166 164.23 182.966 163.53 183.36C162.783 183.8 161.94 183.92 161 183.72C160.06 183.526 159.217 183.013 158.47 182.18Z" fill="black"/>
<path d="M167.87 196.57C168.57 192.41 170.387 189.036 173.32 186.45C173.407 186.363 173.767 186.033 174.4 185.46C175.04 184.893 175.447 184.533 175.62 184.38C175.793 184.226 176.187 183.896 176.8 183.39C177.413 182.89 177.853 182.553 178.12 182.38C178.38 182.2 178.807 181.923 179.4 181.55C179.987 181.183 180.457 180.943 180.81 180.83C181.157 180.723 181.617 180.58 182.19 180.4C182.757 180.226 183.25 180.14 183.67 180.14C184.083 180.14 184.553 180.183 185.08 180.27C185.607 180.356 186.11 180.51 186.59 180.73C187.597 181.17 187.88 182.026 187.44 183.3C187.047 184.48 186.423 185.386 185.57 186.02C184.717 186.653 183.633 187.233 182.32 187.76C181.007 188.286 179.977 188.813 179.23 189.34C175.99 191.833 174.283 194.46 174.11 197.22C173.93 199.673 174.39 201.71 175.49 203.33C175.797 203.856 176.213 204.306 176.74 204.68C177.26 205.053 177.72 205.316 178.12 205.47C178.513 205.623 179.103 205.82 179.89 206.06C180.677 206.3 181.223 206.486 181.53 206.62C182.537 207.013 183.543 206.926 184.55 206.36C185.557 205.786 186.567 205.106 187.58 204.32C188.587 203.533 189.46 203.116 190.2 203.07C190.86 203.03 191.31 203.206 191.55 203.6C191.79 203.993 191.847 204.496 191.72 205.11C191.587 205.723 191.42 206.28 191.22 206.78C191.027 207.286 190.82 207.713 190.6 208.06C188.013 212.006 183.193 212.973 176.14 210.96C173.12 210.08 170.853 208.283 169.34 205.57C167.833 202.85 167.343 199.85 167.87 196.57Z" fill="black"/>
<path d="M192.44 187.76C192.527 186.58 192.45 184.96 192.21 182.9C191.97 180.84 191.817 179.22 191.75 178.04C191.683 176.86 191.913 175.37 192.44 173.57C192.747 172.83 193.447 172.273 194.54 171.9C195.633 171.526 196.707 171.493 197.76 171.8C198.327 172.366 198.61 172.846 198.61 173.24C198.61 175.04 198.49 178.096 198.25 182.41C198.01 186.723 197.933 190.083 198.02 192.49C198.107 192.67 198.25 192.78 198.45 192.82C198.643 192.866 198.873 192.866 199.14 192.82L199.53 192.76C199.837 192.54 200.463 192.046 201.41 191.28C202.35 190.513 203.06 189.976 203.54 189.67C204.02 189.363 204.667 189.033 205.48 188.68C206.287 188.333 207.073 188.213 207.84 188.32C208.607 188.433 209.387 188.73 210.18 189.21C210.92 189.736 211.15 190.326 210.87 190.98C210.583 191.64 210.067 192.143 209.32 192.49C209.013 192.71 207.997 193.303 206.27 194.27C204.537 195.23 203.277 196.106 202.49 196.9C205.383 199.086 209.72 202.83 215.5 208.13C216.287 209.136 216 210.123 214.64 211.09C214.073 211.83 213.297 212.223 212.31 212.27C211.323 212.31 210.613 212.026 210.18 211.42C209.213 210.453 208.183 209.5 207.09 208.56C205.997 207.613 204.66 206.506 203.08 205.24C201.507 203.966 200.413 203.07 199.8 202.55C199.8 202.55 199.6 202.46 199.2 202.28C198.893 202.28 198.807 202.566 198.94 203.14C198.807 204.013 198.893 205.393 199.2 207.28C199.507 209.16 199.617 210.54 199.53 211.42C199.443 212.206 199.017 212.796 198.25 213.19C197.483 213.583 196.707 213.736 195.92 213.65C195.133 213.563 194.65 213.3 194.47 212.86C193.463 210.493 192.773 207.723 192.4 204.55C192.033 201.376 191.883 198.76 191.95 196.7C192.01 194.64 192.173 191.66 192.44 187.76Z" fill="black"/>
<path d="M217.4 195.12C217.313 191.833 218.343 189.183 220.49 187.17C222.637 185.156 225.31 184.37 228.51 184.81C231.137 185.156 233.423 186.426 235.37 188.62C237.323 190.806 238.277 193.26 238.23 195.98C237.837 197.206 236.03 198.77 232.81 200.67C229.59 202.576 227.76 203.75 227.32 204.19C227.107 204.23 226.833 204.403 226.5 204.71C226.173 205.016 226.097 205.303 226.27 205.57C226.797 206.53 227.453 207.206 228.24 207.6C229.033 208 229.923 208.11 230.91 207.93C231.89 207.756 232.787 207.516 233.6 207.21C234.407 206.903 235.36 206.466 236.46 205.9C237.593 206.773 237.953 207.943 237.54 209.41C237.127 210.876 236.24 211.72 234.88 211.94C234.793 211.94 234.31 212.016 233.43 212.17C232.557 212.323 232.01 212.41 231.79 212.43C231.57 212.456 231.09 212.5 230.35 212.56C229.603 212.626 229.033 212.626 228.64 212.56C228.247 212.5 227.763 212.413 227.19 212.3C226.623 212.193 226.077 212.03 225.55 211.81C220.297 209.443 217.58 203.88 217.4 195.12ZM224.57 198.47C228.51 198.296 230.873 196.916 231.66 194.33C232.36 192.796 231.79 191.626 229.95 190.82C228.11 190.006 226.467 189.973 225.02 190.72C224.147 191.2 223.567 192.063 223.28 193.31C223 194.563 223.013 195.726 223.32 196.8C223.627 197.873 224.043 198.43 224.57 198.47Z" fill="black"/>
<path d="M249.33 184.28C249.377 183.886 249.53 182.89 249.79 181.29C250.057 179.69 250.233 178.453 250.32 177.58C250.493 176.093 251.39 175.24 253.01 175.02C254.63 174.8 256.053 175.126 257.28 176C257.853 176.573 257.963 177.32 257.61 178.24C255.903 181.96 255.05 186.426 255.05 191.64C255.403 191.593 256.017 191.526 256.89 191.44C260.79 190.913 263.157 191.003 263.99 191.71C264.47 192.19 264.577 192.89 264.31 193.81C264.183 194.243 263.967 194.626 263.66 194.96C263.353 195.286 262.927 195.55 262.38 195.75C261.827 195.943 261.343 196.106 260.93 196.24C260.517 196.373 259.913 196.46 259.12 196.5C258.333 196.546 257.753 196.58 257.38 196.6C257.007 196.62 256.383 196.62 255.51 196.6C254.637 196.58 254.11 196.57 253.93 196.57C253.71 198.056 253.897 202.523 254.49 209.97C255.083 217.416 255.337 221.73 255.25 222.91C255.203 223.57 254.973 224.106 254.56 224.52C254.14 224.94 253.603 225.15 252.95 225.15C252.157 225.15 251.563 225.006 251.17 224.72C250.777 224.433 250.45 223.873 250.19 223.04C249.797 221.946 249.39 217.613 248.97 210.04C248.557 202.46 248 198.033 247.3 196.76C246.38 197.466 245.373 198.016 244.28 198.41C243.18 198.803 242.093 198.89 241.02 198.67C239.947 198.45 239.213 197.793 238.82 196.7C238.647 196.26 238.747 195.756 239.12 195.19C239.493 194.616 239.94 194.156 240.46 193.81C241.033 193.503 242.293 193.14 244.24 192.72C246.193 192.306 247.477 191.726 248.09 190.98C248.483 190.5 248.743 189.9 248.87 189.18C249.003 188.453 249.103 187.563 249.17 186.51C249.237 185.463 249.29 184.72 249.33 184.28Z" fill="black"/>
<path d="M279.16 184.28C279.553 184.453 280.353 184.77 281.56 185.23C282.767 185.69 283.653 186.053 284.22 186.32C284.787 186.58 285.443 187.006 286.19 187.6C286.937 188.193 287.483 188.86 287.83 189.6C288.097 190.086 288.087 190.7 287.8 191.44C287.513 192.186 287.173 192.69 286.78 192.95C285.86 193.523 284.613 193.37 283.04 192.49C281.46 191.616 280.003 190.806 278.67 190.06C277.337 189.32 275.727 189.41 273.84 190.33C273.007 190.896 272.983 191.75 273.77 192.89C274.563 194.03 275.397 194.753 276.27 195.06C280.823 196.68 284.283 198.583 286.65 200.77C287.53 201.823 287.913 203.05 287.8 204.45C287.693 205.85 287.243 207.186 286.45 208.46C285.317 210.386 283.457 211.906 280.87 213.02C278.283 214.14 275.633 214.416 272.92 213.85C270.207 213.276 268.237 211.72 267.01 209.18C266.57 208.306 266.723 207.443 267.47 206.59C268.21 205.736 269.087 205.263 270.1 205.17C270.667 205.13 271.223 205.57 271.77 206.49C272.317 207.41 272.767 207.956 273.12 208.13C274.653 209.003 276.447 209.036 278.5 208.23C280.56 207.416 281.59 206.113 281.59 204.32C281.59 203.88 281.25 203.366 280.57 202.78C279.897 202.186 279.23 201.736 278.57 201.43C278.09 201.21 277.017 200.76 275.35 200.08C273.683 199.4 272.49 198.886 271.77 198.54C271.05 198.186 270.197 197.593 269.21 196.76C268.223 195.933 267.49 194.993 267.01 193.94C266.217 192.32 266.543 190.6 267.99 188.78C269.437 186.96 271.31 185.603 273.61 184.71C275.91 183.81 277.76 183.666 279.16 184.28Z" fill="black"/>
<path d="M181.758 95.1798L178.19 85.3466C178.031 84.9501 177.714 84.5536 177.317 84.395C176.921 84.2364 176.445 84.1571 176.049 84.3157C174.145 85.0294 172.084 84.9501 170.26 84.0778C168.436 83.2055 167.088 81.6989 166.374 79.7957C164.947 75.91 167.009 71.5485 170.894 70.1211C171.291 69.9625 171.687 69.6453 171.846 69.2488C172.004 68.8523 172.084 68.3765 171.925 67.98L168.357 58.1469C168.198 57.7504 167.881 57.3539 167.484 57.1953C167.088 57.0367 166.612 56.9574 166.216 57.116L107.613 78.6062C106.741 78.9234 106.265 79.875 106.582 80.7473L110.151 90.5804C110.468 91.4527 111.42 91.9285 112.292 91.6113C116.177 90.1839 120.539 92.2457 121.966 96.1314C123.394 100.017 121.332 104.379 117.446 105.806C116.574 106.123 116.098 107.075 116.415 107.947L119.984 117.78C120.142 118.177 120.46 118.573 120.856 118.732C121.094 118.811 121.332 118.89 121.57 118.89C121.728 118.89 121.966 118.89 122.125 118.811L180.648 97.4795C181.6 97.0037 182.075 96.0521 181.758 95.1798ZM153.845 96.8451L147.184 95.4177C147.025 95.4177 146.866 95.4177 146.708 95.5763L142.505 100.969C141.712 102 140.126 101.524 139.967 100.255L139.174 93.5145C139.174 93.3559 139.016 93.1973 138.857 93.118L132.434 90.739C131.244 90.2632 131.165 88.5979 132.355 88.1221L138.619 85.3466C138.778 85.2673 138.857 85.1087 138.857 84.9501L139.095 78.1304C139.174 76.8616 140.76 76.3065 141.553 77.2581L146.153 82.3333C146.232 82.4919 146.47 82.4919 146.629 82.4919L153.21 80.5887C154.479 80.2715 155.51 81.5403 154.876 82.6505L151.466 88.5979C151.386 88.7565 151.386 88.9151 151.466 89.0737L155.272 94.7833C156.065 95.7349 155.114 97.1623 153.845 96.8451Z" fill="white"/>
<path opacity="0.7" d="M154.182 18.0827C159.175 18.0827 163.223 14.0347 163.223 9.04133C163.223 4.04794 159.175 0 154.182 0C149.189 0 145.141 4.04794 145.141 9.04133C145.141 14.0347 149.189 18.0827 154.182 18.0827Z" fill="url(#paint4_linear_5123_209)"/>
<path opacity="0.7" d="M217.788 106.17C220.52 106.17 222.734 103.955 222.734 101.223C222.734 98.4914 220.52 96.2767 217.788 96.2767C215.056 96.2767 212.841 98.4914 212.841 101.223C212.841 103.955 215.056 106.17 217.788 106.17Z" fill="url(#paint5_linear_5123_209)"/>
<path opacity="0.7" d="M237.146 93.4577C242.933 93.4577 247.624 88.7667 247.624 82.9801C247.624 77.1934 242.933 72.5024 237.146 72.5024C231.359 72.5024 226.668 77.1934 226.668 82.9801C226.668 88.7667 231.359 93.4577 237.146 93.4577Z" fill="url(#paint6_linear_5123_209)"/>
<path opacity="0.7" d="M81.1659 146.197C84.1717 146.197 86.6084 143.76 86.6084 140.755C86.6084 137.749 84.1717 135.312 81.1659 135.312C78.1601 135.312 75.7234 137.749 75.7234 140.755C75.7234 143.76 78.1601 146.197 81.1659 146.197Z" fill="url(#paint7_linear_5123_209)"/>
<defs>
<linearGradient id="paint0_linear_5123_209" x1="79.5144" y1="27.3706" x2="203.039" y2="150.895" gradientUnits="userSpaceOnUse">
<stop stop-color="#00DDFF"/>
<stop offset="1" stop-color="#FF00D4"/>
</linearGradient>
<linearGradient id="paint1_linear_5123_209" x1="139.009" y1="25.3706" x2="216.442" y2="102.804" gradientUnits="userSpaceOnUse">
<stop stop-color="#00DDFF"/>
<stop offset="1" stop-color="#FF00D4"/>
</linearGradient>
<linearGradient id="paint2_linear_5123_209" x1="179.514" y1="113.786" x2="67.3023" y2="33.1372" gradientUnits="userSpaceOnUse">
<stop stop-color="#00DDFF"/>
<stop offset="1" stop-color="#FF00D4"/>
</linearGradient>
<linearGradient id="paint3_linear_5123_209" x1="133.479" y1="76.5111" x2="204.813" y2="147.845" gradientUnits="userSpaceOnUse">
<stop stop-color="#00DDFF"/>
<stop offset="1" stop-color="#FF00D4"/>
</linearGradient>
<linearGradient id="paint4_linear_5123_209" x1="145.141" y1="0" x2="163.223" y2="18.0827" gradientUnits="userSpaceOnUse">
<stop stop-color="#00DDFF"/>
<stop offset="1" stop-color="#FF00D4"/>
</linearGradient>
<linearGradient id="paint5_linear_5123_209" x1="212.841" y1="96.2767" x2="222.734" y2="106.17" gradientUnits="userSpaceOnUse">
<stop stop-color="#00DDFF"/>
<stop offset="1" stop-color="#FF00D4"/>
</linearGradient>
<linearGradient id="paint6_linear_5123_209" x1="226.668" y1="72.5024" x2="247.624" y2="93.4577" gradientUnits="userSpaceOnUse">
<stop stop-color="#00DDFF"/>
<stop offset="1" stop-color="#FF00D4"/>
</linearGradient>
<linearGradient id="paint7_linear_5123_209" x1="75.7234" y1="135.312" x2="86.6084" y2="146.197" gradientUnits="userSpaceOnUse">
<stop stop-color="#00DDFF"/>
<stop offset="1" stop-color="#FF00D4"/>
</linearGradient>
</defs>
</svg>
