<svg version="1.1" id="Layer_1" xmlns="http://www.w3.org/2000/svg" xmlns:xlink="http://www.w3.org/1999/xlink" x="0px" y="0px"
	 width="100%" viewBox="0 0 332 114" enable-background="new 0 0 332 114" xml:space="preserve">
<path fill="#33CBFD" opacity="1.000000" stroke="none" 
	d="
M333.000000,62.000000 
	C333.000000,79.657928 333.000000,97.315849 333.000000,114.980331 
	C222.396835,114.986893 111.793663,114.986893 1.095245,114.986893 
	C1.095245,77.082512 1.095245,39.164703 1.095245,1.123447 
	C111.666573,1.123447 222.333267,1.123447 333.000000,1.123447 
	C333.000000,18.413288 333.000000,35.737988 332.634125,53.368420 
	C329.192505,32.484665 316.579926,19.172308 295.365997,15.476720 
	C280.645508,12.912326 261.951233,20.303534 252.740982,37.232777 
	C248.374908,45.257984 247.135864,53.847816 247.431274,62.789536 
	C247.571457,67.032227 246.448441,70.756142 241.804184,71.463203 
	C236.933838,72.204681 237.628220,74.734291 239.019272,77.787819 
	C242.231171,84.838226 247.632065,89.875809 253.923935,94.186172 
	C255.292236,95.123550 256.566803,96.958115 256.861511,98.566864 
	C257.968628,104.610191 261.178406,108.298615 266.973694,109.418091 
	C272.107483,110.409790 276.592438,107.862198 279.685486,102.692551 
	C280.416656,101.470528 282.175232,100.497734 283.632935,100.166786 
	C285.528748,99.736389 287.596100,100.061584 289.439697,100.061584 
	C289.805786,100.486389 290.078827,100.702805 290.222900,100.985062 
	C293.983704,108.352577 298.298767,110.775185 304.751648,109.124260 
	C311.085388,107.503815 313.419159,103.596107 313.382416,95.447174 
	C313.376617,94.162521 314.484589,92.505997 315.571198,91.642746 
	C322.688812,85.988190 327.730957,78.937958 330.526489,70.296196 
	C331.414429,67.551308 332.178986,64.766525 333.000000,62.000000 
M42.089207,81.712524 
	C42.969166,82.253860 44.384277,82.611023 44.644051,83.365807 
	C46.643147,89.174194 48.395378,95.066994 50.268051,100.919571 
	C52.981438,109.399612 53.011940,109.550858 62.061695,108.693443 
	C63.708553,108.537407 66.055252,106.831833 66.593216,105.314751 
	C71.090202,92.633057 75.260445,79.834938 79.453018,67.046951 
	C79.776756,66.059509 79.663734,63.953388 79.512581,63.930065 
	C76.613815,63.482800 73.637863,62.880810 70.769989,63.183540 
	C69.468864,63.320885 67.756462,65.142632 67.281822,66.553841 
	C65.324112,72.374489 63.816612,78.344925 62.043045,84.229980 
	C61.332893,86.586403 60.362911,88.864517 59.511200,91.178276 
	C55.946404,83.235962 53.283630,75.582680 51.130753,67.788559 
	C50.093285,64.032585 48.193703,63.167534 44.477131,62.810993 
	C38.505531,62.238125 36.350082,64.932648 34.982475,70.154877 
	C33.038429,77.578270 30.417219,84.824318 27.655987,93.494202 
	C24.902109,84.340096 22.236076,76.801155 20.445263,69.059761 
	C19.252378,63.903118 16.734076,62.467953 11.763056,62.890442 
	C6.233348,63.360409 5.940659,63.283756 7.722370,68.736031 
	C11.231506,79.474449 14.903919,90.159386 18.464628,100.881111 
	C21.458815,109.896980 19.452183,108.901703 30.313581,108.680519 
	C31.884958,108.648529 34.281776,106.843193 34.816017,105.334267 
	C37.474079,97.826836 39.636730,90.144005 42.089207,81.712524 
M113.148697,64.170639 
	C102.948135,59.977837 91.478188,63.382008 85.441154,72.393982 
	C79.183769,81.734917 80.448593,95.557632 88.220795,103.200905 
	C92.469017,107.378662 97.784019,109.844719 103.473999,109.474358 
	C108.626434,109.138985 113.656319,106.920967 118.642570,105.559715 
	C118.374184,111.381699 123.716034,108.360054 127.037193,108.780197 
	C131.298508,109.319267 130.732330,106.076950 130.733917,103.445992 
	C130.741013,91.644821 130.778961,79.843323 130.685410,68.042892 
	C130.673157,66.497879 130.468719,64.381325 129.485840,63.524071 
	C126.486710,60.908279 119.294495,63.746792 118.184669,67.716942 
	C116.731171,66.655334 115.277664,65.593727 113.148697,64.170639 
M223.847809,96.574043 
	C221.077271,93.681862 218.812759,93.817848 215.439713,96.448441 
	C207.801529,102.405327 197.097931,99.052757 195.062332,90.085037 
	C204.922745,90.085037 214.672089,89.995438 224.418076,90.136940 
	C227.542236,90.182304 228.840088,89.330284 228.893295,85.946167 
	C229.153519,69.394371 213.771469,58.081795 198.140045,63.497074 
	C188.200638,66.940430 182.250488,75.204147 182.080811,85.800552 
	C181.920685,95.801193 187.341034,104.185066 196.310303,107.809807 
	C205.830704,111.657265 218.814392,109.144234 225.179459,102.493935 
	C227.524521,100.043777 226.864136,98.536362 223.847809,96.574043 
M138.825195,65.699707 
	C138.706223,73.601387 138.706223,73.601715 146.438904,73.602753 
	C151.266205,73.603401 156.093521,73.602875 161.949936,73.602875 
	C160.067795,75.705345 159.203827,76.704407 158.304016,77.670082 
	C152.403580,84.002472 146.131836,90.040123 140.781097,96.806480 
	C138.829865,99.273949 138.698929,103.463150 138.638596,106.882759 
	C138.627762,107.496376 143.010117,108.690468 145.386887,108.753136 
	C154.040497,108.981331 162.707108,108.982407 171.361847,108.776779 
	C174.967972,108.691109 179.953705,111.014214 179.877914,103.535606 
	C179.805191,96.360329 175.030579,98.717918 171.587753,98.545403 
	C166.379745,98.284447 161.149002,98.477272 154.743576,98.477272 
	C156.786026,96.108025 157.884949,94.739952 159.080505,93.462303 
	C164.765518,87.386887 170.920639,81.676140 175.955673,75.105507 
	C177.910889,72.553993 177.632263,68.079819 177.630081,64.481926 
	C177.629791,63.981129 173.369095,63.093716 171.068527,63.051983 
	C161.912292,62.885914 152.749771,62.899876 143.593521,63.065334 
	C142.034225,63.093506 140.494217,64.189850 138.825195,65.699707 
z"/>
<path fill="#070B0C" opacity="1.000000" stroke="none" 
	d="
M333.000000,61.555832 
	C332.178986,64.766525 331.414429,67.551308 330.526489,70.296196 
	C327.730957,78.937958 322.688812,85.988190 315.571198,91.642746 
	C314.484589,92.505997 313.376617,94.162521 313.382416,95.447174 
	C313.419159,103.596107 311.085388,107.503815 304.751648,109.124260 
	C298.298767,110.775185 293.983704,108.352577 290.222900,100.985062 
	C290.078827,100.702805 289.805786,100.486389 289.439697,100.061584 
	C287.596100,100.061584 285.528748,99.736389 283.632935,100.166786 
	C282.175232,100.497734 280.416656,101.470528 279.685486,102.692551 
	C276.592438,107.862198 272.107483,110.409790 266.973694,109.418091 
	C261.178406,108.298615 257.968628,104.610191 256.861511,98.566864 
	C256.566803,96.958115 255.292236,95.123550 253.923935,94.186172 
	C247.632065,89.875809 242.231171,84.838226 239.019272,77.787819 
	C237.628220,74.734291 236.933838,72.204681 241.804184,71.463203 
	C246.448441,70.756142 247.571457,67.032227 247.431274,62.789536 
	C247.135864,53.847816 248.374908,45.257984 252.740982,37.232777 
	C261.951233,20.303534 280.645508,12.912326 295.365997,15.476720 
	C316.579926,19.172308 329.192505,32.484665 332.634125,53.837078 
	C333.000000,56.370556 333.000000,58.741116 333.000000,61.555832 
M315.514832,29.980309 
	C308.940826,23.855564 301.152802,20.436045 292.200378,19.993919 
	C269.827515,18.889006 252.220779,35.956390 252.168060,58.979774 
	C252.151413,66.246071 252.309647,73.226669 242.355835,76.655754 
	C248.026855,82.229744 252.875259,86.995193 257.643005,91.681374 
	C267.770111,83.211449 272.827637,83.921066 280.016418,93.846817 
	C280.500122,94.514687 281.554932,95.230545 282.293213,95.180054 
	C288.726685,94.740097 295.578796,95.385773 301.500275,93.356323 
	C329.048706,83.914726 336.332886,51.437153 315.514832,29.980309 
z"/>
<path fill="#010507" opacity="1.000000" stroke="none" 
	d="
M42.031509,82.117722 
	C39.636730,90.144005 37.474079,97.826836 34.816017,105.334267 
	C34.281776,106.843193 31.884958,108.648529 30.313581,108.680519 
	C19.452183,108.901703 21.458815,109.896980 18.464628,100.881111 
	C14.903919,90.159386 11.231506,79.474449 7.722370,68.736031 
	C5.940659,63.283756 6.233348,63.360409 11.763056,62.890442 
	C16.734076,62.467953 19.252378,63.903118 20.445263,69.059761 
	C22.236076,76.801155 24.902109,84.340096 27.655987,93.494202 
	C30.417219,84.824318 33.038429,77.578270 34.982475,70.154877 
	C36.350082,64.932648 38.505531,62.238125 44.477131,62.810993 
	C48.193703,63.167534 50.093285,64.032585 51.130753,67.788559 
	C53.283630,75.582680 55.946404,83.235962 59.511200,91.178276 
	C60.362911,88.864517 61.332893,86.586403 62.043045,84.229980 
	C63.816612,78.344925 65.324112,72.374489 67.281822,66.553841 
	C67.756462,65.142632 69.468864,63.320885 70.769989,63.183540 
	C73.637863,62.880810 76.613815,63.482800 79.512581,63.930065 
	C79.663734,63.953388 79.776756,66.059509 79.453018,67.046951 
	C75.260445,79.834938 71.090202,92.633057 66.593216,105.314751 
	C66.055252,106.831833 63.708553,108.537407 62.061695,108.693443 
	C53.011940,109.550858 52.981438,109.399612 50.268051,100.919571 
	C48.395378,95.066994 46.643147,89.174194 44.644051,83.365807 
	C44.384277,82.611023 42.969166,82.253860 42.031509,82.117722 
z"/>
<path fill="#020608" opacity="1.000000" stroke="none" 
	d="
M113.486435,64.351379 
	C115.277664,65.593727 116.731171,66.655334 118.186844,67.713898 
	C119.294495,63.746792 126.486710,60.908279 129.485840,63.524071 
	C130.468719,64.381325 130.673157,66.497879 130.685410,68.042892 
	C130.778961,79.843323 130.741013,91.644821 130.733917,103.445992 
	C130.732330,106.076950 131.298508,109.319267 127.037193,108.780197 
	C123.716034,108.360054 118.374184,111.381699 118.642570,105.559715 
	C113.656319,106.920967 108.626434,109.138985 103.473999,109.474358 
	C97.784019,109.844719 92.469017,107.378662 88.220795,103.200905 
	C80.448593,95.557632 79.183769,81.734917 85.441154,72.393982 
	C91.478188,63.382008 102.948135,59.977837 113.486435,64.351379 
M101.111351,97.711220 
	C109.437309,100.543976 116.785385,97.011284 118.788177,89.212822 
	C120.675819,81.862732 115.835457,74.438522 108.377960,73.245491 
	C102.617744,72.323982 96.787857,75.617912 94.705872,80.970337 
	C92.259155,87.260422 94.306526,93.089005 101.111351,97.711220 
z"/>
<path fill="#010607" opacity="1.000000" stroke="none" 
	d="
M224.143082,96.786667 
	C226.864136,98.536362 227.524521,100.043777 225.179459,102.493935 
	C218.814392,109.144234 205.830704,111.657265 196.310303,107.809807 
	C187.341034,104.185066 181.920685,95.801193 182.080811,85.800552 
	C182.250488,75.204147 188.200638,66.940430 198.140045,63.497074 
	C213.771469,58.081795 229.153519,69.394371 228.893295,85.946167 
	C228.840088,89.330284 227.542236,90.182304 224.418076,90.136940 
	C214.672089,89.995438 204.922745,90.085037 195.062332,90.085037 
	C197.097931,99.052757 207.801529,102.405327 215.439713,96.448441 
	C218.812759,93.817848 221.077271,93.681862 224.143082,96.786667 
M201.930481,73.271164 
	C198.241333,74.839088 195.598633,77.244576 195.002853,81.895287 
	C198.934952,81.895287 202.563507,81.895287 206.192078,81.895287 
	C209.725525,81.895287 213.258957,81.895287 217.019409,81.895287 
	C214.329987,73.817787 210.820221,71.825050 201.930481,73.271164 
z"/>
<path fill="#020708" opacity="1.000000" stroke="none" 
	d="
M138.885254,65.246216 
	C140.494217,64.189850 142.034225,63.093506 143.593521,63.065334 
	C152.749771,62.899876 161.912292,62.885914 171.068527,63.051983 
	C173.369095,63.093716 177.629791,63.981129 177.630081,64.481926 
	C177.632263,68.079819 177.910889,72.553993 175.955673,75.105507 
	C170.920639,81.676140 164.765518,87.386887 159.080505,93.462303 
	C157.884949,94.739952 156.786026,96.108025 154.743576,98.477272 
	C161.149002,98.477272 166.379745,98.284447 171.587753,98.545403 
	C175.030579,98.717918 179.805191,96.360329 179.877914,103.535606 
	C179.953705,111.014214 174.967972,108.691109 171.361847,108.776779 
	C162.707108,108.982407 154.040497,108.981331 145.386887,108.753136 
	C143.010117,108.690468 138.627762,107.496376 138.638596,106.882759 
	C138.698929,103.463150 138.829865,99.273949 140.781097,96.806480 
	C146.131836,90.040123 152.403580,84.002472 158.304016,77.670082 
	C159.203827,76.704407 160.067795,75.705345 161.949936,73.602875 
	C156.093521,73.602875 151.266205,73.603401 146.438904,73.602753 
	C138.706223,73.601715 138.706223,73.601387 138.885254,65.246216 
z"/>
<path fill="#FCFCFC" opacity="1.000000" stroke="none" 
	d="
M315.769897,30.227596 
	C336.332886,51.437153 329.048706,83.914726 301.500275,93.356323 
	C295.578796,95.385773 288.726685,94.740097 282.293213,95.180054 
	C281.554932,95.230545 280.500122,94.514687 280.016418,93.846817 
	C272.827637,83.921066 267.770111,83.211449 257.643005,91.681374 
	C252.875259,86.995193 248.026855,82.229744 242.355835,76.655754 
	C252.309647,73.226669 252.151413,66.246071 252.168060,58.979774 
	C252.220779,35.956390 269.827515,18.889006 292.200378,19.993919 
	C301.152802,20.436045 308.940826,23.855564 315.769897,30.227596 
M308.313324,70.789932 
	C308.745728,70.287666 309.411957,69.848923 309.568787,69.271767 
	C310.144348,67.153503 310.550690,64.989250 311.020721,62.842304 
	C309.338043,63.906555 307.213898,64.620918 306.046661,66.093681 
	C299.937012,73.802368 289.190491,73.536888 283.045593,65.496933 
	C282.058472,64.205399 280.171997,63.601273 278.701294,62.679371 
	C278.833252,64.559700 278.295105,66.887428 279.204102,68.248970 
	C285.937134,78.333977 299.931396,79.087212 308.313324,70.789932 
M284.397644,45.544975 
	C282.326141,45.061115 280.207214,44.108158 278.205139,44.310684 
	C277.332367,44.398979 276.008881,46.924702 276.136566,48.220692 
	C276.287415,49.752274 277.448700,51.740929 278.765259,52.493542 
	C282.287994,54.507256 285.299957,51.274845 284.397644,45.544975 
M304.447754,46.252930 
	C305.259918,48.357178 305.741913,50.713982 307.057068,52.433517 
	C307.540314,53.065315 310.615509,52.746628 311.400116,51.869797 
	C312.527435,50.609970 313.322449,48.328674 313.047119,46.686638 
	C312.450592,43.128777 308.750977,42.757389 304.447754,46.252930 
z"/>
<path fill="#32C7F9" opacity="1.000000" stroke="none" 
	d="
M100.779251,97.513107 
	C94.306526,93.089005 92.259155,87.260422 94.705872,80.970337 
	C96.787857,75.617912 102.617744,72.323982 108.377960,73.245491 
	C115.835457,74.438522 120.675819,81.862732 118.788177,89.212822 
	C116.785385,97.011284 109.437309,100.543976 100.779251,97.513107 
z"/>
<path fill="#30C1F2" opacity="1.000000" stroke="none" 
	d="
M202.290192,73.165024 
	C210.820221,71.825050 214.329987,73.817787 217.019409,81.895287 
	C213.258957,81.895287 209.725525,81.895287 206.192078,81.895287 
	C202.563507,81.895287 198.934952,81.895287 195.002853,81.895287 
	C195.598633,77.244576 198.241333,74.839088 202.290192,73.165024 
z"/>
<path fill="#111111" opacity="1.000000" stroke="none" 
	d="
M308.055908,71.047325 
	C299.931396,79.087212 285.937134,78.333977 279.204102,68.248970 
	C278.295105,66.887428 278.833252,64.559700 278.701294,62.679371 
	C280.171997,63.601273 282.058472,64.205399 283.045593,65.496933 
	C289.190491,73.536888 299.937012,73.802368 306.046661,66.093681 
	C307.213898,64.620918 309.338043,63.906555 311.020752,62.842308 
	C310.550690,64.989250 310.144348,67.153503 309.568787,69.271767 
	C309.411957,69.848923 308.745728,70.287666 308.055908,71.047325 
z"/>
<path fill="#111111" opacity="1.000000" stroke="none" 
	d="
M284.634644,45.855728 
	C285.299957,51.274845 282.287994,54.507256 278.765259,52.493542 
	C277.448700,51.740929 276.287415,49.752274 276.136566,48.220692 
	C276.008881,46.924702 277.332367,44.398979 278.205139,44.310684 
	C280.207214,44.108158 282.326141,45.061115 284.634644,45.855728 
z"/>
<path fill="#0D0D0D" opacity="1.000000" stroke="none" 
	d="
M304.653320,45.936302 
	C308.750977,42.757389 312.450592,43.128777 313.047119,46.686638 
	C313.322449,48.328674 312.527435,50.609970 311.400116,51.869797 
	C310.615509,52.746628 307.540314,53.065315 307.057068,52.433517 
	C305.741913,50.713982 305.259918,48.357178 304.653320,45.936302 
z"/>
</svg>